HIERARCHY
ROOT joint_Root
{
	OFFSET 0.0 0.0 0.0
	CHANNELS 6 Xposition Yposition Zposition Zrotation Xrotation Yrotation 
	JOINT Hips
	{
		OFFSET -17.1583 93.1646 452.98
		CHANNELS 6 Xposition Yposition Zposition Zrotation Xrotation Yrotation 
		JOINT Spine
		{
			OFFSET 15.7357 0.0 0.0
			CHANNELS 6 Xposition Yposition Zposition Zrotation Xrotation Yrotation 
			JOINT Chest
			{
				OFFSET 8.98455 -0.406207 0.0
				CHANNELS 6 Xposition Yposition Zposition Zrotation Xrotation Yrotation 
				JOINT Neck
				{
					OFFSET 16.3773 0.0 0.0
					CHANNELS 6 Xposition Yposition Zposition Zrotation Xrotation Yrotation 
					JOINT Head
					{
						OFFSET 6.45672 0.0 0.0
						CHANNELS 6 Xposition Yposition Zposition Zrotation Xrotation Yrotation 
						End Site
						{
							OFFSET 0.0 0.0 0.0
						}
					}
				}
				JOINT Shoulder_L
				{
					OFFSET 12.9942 -0.242716 4.98039
					CHANNELS 6 Xposition Yposition Zposition Zrotation Xrotation Yrotation 
					JOINT UpperArm_L
					{
						OFFSET 5.34809 0.0 0.0
						CHANNELS 6 Xposition Yposition Zposition Zrotation Xrotation Yrotation 
						JOINT LowerArm_L
						{
							OFFSET 24.3286 1.87007e-05 0.0
							CHANNELS 6 Xposition Yposition Zposition Zrotation Xrotation Yrotation 
							JOINT Hand_L
							{
								OFFSET 22.2916 0.0 0.0
								CHANNELS 6 Xposition Yposition Zposition Zrotation Xrotation Yrotation 
								End Site
								{
									OFFSET 0.0 0.0 0.0
								}
							}
						}
					}
				}
				JOINT Shoulder_R
				{
					OFFSET 12.9945 -0.242716 -4.98039
					CHANNELS 6 Xposition Yposition Zposition Zrotation Xrotation Yrotation 
					JOINT UpperArm_R
					{
						OFFSET -5.34813 0.0 0.0
						CHANNELS 6 Xposition Yposition Zposition Zrotation Xrotation Yrotation 
						JOINT LowerArm_R
						{
							OFFSET -24.3289 0.000322201 0.0
							CHANNELS 6 Xposition Yposition Zposition Zrotation Xrotation Yrotation 
							JOINT Hand_R
							{
								OFFSET -22.2915 -0.000108084 0.0
								CHANNELS 6 Xposition Yposition Zposition Zrotation Xrotation Yrotation 
								End Site
								{
									OFFSET 0.0 0.0 0.0
								}
							}
						}
					}
				}
			}
		}
		JOINT UpperLeg_L
		{
			OFFSET -2.19248 -6.46944 0.0
			CHANNELS 6 Xposition Yposition Zposition Zrotation Xrotation Yrotation 
			JOINT LowerLeg_L
			{
				OFFSET 39.0811 0.0 -1.23785e-05
				CHANNELS 6 Xposition Yposition Zposition Zrotation Xrotation Yrotation 
				JOINT Foot_L
				{
					OFFSET 40.9854 0.0 -1.26872e-05
					CHANNELS 6 Xposition Yposition Zposition Zrotation Xrotation Yrotation 
					JOINT Toes_L
					{
						OFFSET 11.7543 0.0 0.0
						CHANNELS 6 Xposition Yposition Zposition Zrotation Xrotation Yrotation 
						End Site
						{
							OFFSET 0.0 0.0 0.0
						}
					}
				}
			}
		}
		JOINT UpperLeg_R
		{
			OFFSET -2.19251 6.46944 0.0
			CHANNELS 6 Xposition Yposition Zposition Zrotation Xrotation Yrotation 
			JOINT LowerLeg_R
			{
				OFFSET -39.0811 -0.00228153 -0.0401928
				CHANNELS 6 Xposition Yposition Zposition Zrotation Xrotation Yrotation 
				JOINT Foot_R
				{
					OFFSET -40.9854 0.0 0.0
					CHANNELS 6 Xposition Yposition Zposition Zrotation Xrotation Yrotation 
					JOINT Toes_R
					{
						OFFSET -11.7543 0.0 0.0
						CHANNELS 6 Xposition Yposition Zposition Zrotation Xrotation Yrotation 
						End Site
						{
							OFFSET 0.0 0.0 0.0
						}
					}
				}
			}
		}
	}
}
MOTION
Frames:	4
Frame Time:	0.0333333
0.000000 0.000000 0.000000 0.000000 0.000000 -0.000000 2.248090 93.321000 -2.275410 88.283800 2.207700 1.874320 15.735700 0.000005 -0.000001 103.812000 85.377000 -103.831000 8.984550 -0.406207 -0.000000 1.214020 2.207440 -0.061754 16.377300 -0.000001 -0.000001 0.691570 0.527386 2.102370 6.456720 -0.000001 -0.000000 -15.300800 -2.523230 5.447610 12.994200 -0.242716 4.980390 -93.489700 10.168700 -70.944500 5.348090 -0.000007 -0.000001 -68.762800 10.796300 -8.314080 24.328600 0.000019 0.000005 5.076670 21.499400 -13.625400 22.291600 -0.000001 0.000005 -6.624640 5.171560 3.406550 12.994500 -0.242716 -4.980390 88.104700 6.019320 -72.486700 -5.348130 -0.000001 -0.000004 -69.562600 30.191200 -6.565000 -24.328900 0.000322 -0.000009 -0.009314 -0.026029 -17.606800 -22.291500 -0.000108 -0.000004 1.450500 5.295480 0.198897 -2.192480 -6.469440 -0.000000 -175.961000 -8.876620 -2.691080 39.081100 -0.000007 -0.000012 0.030320 -0.098942 17.037300 40.985400 -0.000006 -0.000013 1.937990 14.896500 -67.738500 11.754300 -0.000000 0.000003 -0.001089 0.184294 -9.100830 -2.192510 6.469440 -0.000001 174.516000 10.610500 -177.996000 -39.081100 -0.002282 -0.040193 0.003025 0.001964 9.122540 -40.985400 0.000008 0.000006 -11.210100 9.133580 -62.694800 -11.754300 -0.000006 -0.000006 -0.010421 0.274424 -5.423390
0.000000 0.000000 0.000000 0.000000 0.000000 -0.000000 2.328610 93.327400 -2.206490 88.427800 2.613680 1.657650 15.735700 0.000005 -0.000001 104.588000 85.468200 -104.238000 8.984550 -0.406207 -0.000000 0.999610 2.261310 0.679731 16.377300 -0.000001 -0.000001 0.210844 0.487007 2.599550 6.456720 -0.000001 -0.000000 -16.341800 -2.726210 6.539080 12.994200 -0.242716 4.980390 -93.577900 10.374200 -70.852000 5.348090 -0.000007 -0.000001 -68.120300 4.651890 -11.268100 24.328600 0.000019 0.000005 2.394520 21.861500 -6.416400 22.291600 -0.000001 0.000005 -10.631200 5.217570 2.269660 12.994500 -0.242716 -4.980390 88.057500 6.147390 -72.426600 -5.348130 -0.000001 -0.000004 -69.168000 27.346900 -5.943040 -24.328900 0.000322 -0.000009 -0.094192 -0.304241 -17.032200 -22.291500 -0.000108 -0.000004 1.842530 5.300420 0.061054 -2.192480 -6.469440 -0.000000 -176.165000 -8.950130 -2.798680 39.081100 -0.000007 -0.000012 0.030838 -0.101752 16.860600 40.985400 -0.000006 -0.000013 2.043640 15.317700 -67.828200 11.754300 -0.000000 0.000003 -0.001315 0.187418 -8.973850 -2.192510 6.469440 -0.000001 174.354000 10.646700 -178.023000 -39.081100 -0.002282 -0.040193 0.003653 -0.001979 8.980500 -40.985400 0.000008 0.000006 -11.363000 8.804070 -62.747400 -11.754300 -0.000006 -0.000006 -0.010053 0.271700 -5.534830
0.000000 0.000000 0.000000 0.000000 0.000000 -0.000000 2.370470 93.320500 -2.092140 88.606700 3.140070 1.524220 15.735700 0.000005 -0.000001 103.980000 85.619700 -103.191000 8.984550 -0.406207 -0.000000 0.722027 2.067190 1.563890 16.377300 -0.000001 -0.000001 -0.427711 0.408605 2.842960 6.456720 -0.000001 -0.000000 -16.821000 -2.976530 7.784830 12.994200 -0.242716 4.980390 -93.485600 10.063000 -70.781600 5.348090 -0.000007 -0.000001 -67.248300 -4.143730 -14.712800 24.328600 0.000019 0.000005 -0.004220 26.925300 -0.000002 22.291600 -0.000001 0.000005 -16.709400 5.188090 3.052420 12.994500 -0.242716 -4.980390 88.037000 6.198530 -72.388600 -5.348130 -0.000001 -0.000004 -68.722000 24.405700 -5.531700 -24.328900 0.000322 -0.000009 -0.266430 -0.945927 -15.686800 -22.291500 -0.000108 -0.000004 2.396840 5.310520 -0.224231 -2.192480 -6.469440 -0.000000 -176.341000 -8.967140 -2.835180 39.081100 -0.000007 -0.000012 0.029953 -0.099802 16.706200 40.985400 -0.000006 -0.000013 2.140640 15.901600 -67.823800 11.754300 -0.000000 0.000003 -0.001352 0.187915 -8.953660 -2.192510 6.469440 -0.000001 174.218000 10.686100 -178.060000 -39.081100 -0.002282 -0.040193 0.003426 -0.000531 9.142410 -40.985400 0.000008 0.000006 -11.066500 8.303160 -63.135900 -11.754300 -0.000006 -0.000006 -0.010154 0.272450 -5.504170
0.000000 0.000000 0.000000 0.000000 0.000000 -0.000000 2.375680 93.329600 -1.931750 88.769000 3.497010 1.215060 15.735700 0.000005 -0.000001 102.417000 85.898700 -101.070000 8.984550 -0.406207 -0.000000 0.226820 1.674700 2.688150 16.377300 -0.000001 -0.000001 -1.216660 0.426745 3.038210 6.456720 -0.000001 -0.000000 -17.052900 -2.809690 8.410660 12.994200 -0.242716 4.980390 -93.318400 9.493950 -70.632300 5.348090 -0.000007 -0.000001 -64.944900 -12.598400 -16.891100 24.328600 0.000019 0.000005 -0.000010 37.270600 -0.000005 22.291600 -0.000001 0.000005 -25.283200 5.173170 3.310220 12.994500 -0.242716 -4.980390 88.097600 5.937220 -72.197600 -5.348130 -0.000001 -0.000004 -68.355100 21.051600 -5.376430 -24.328900 0.000322 -0.000009 -0.428852 -1.722580 -13.956600 -22.291500 -0.000108 -0.000004 3.151190 5.305860 -0.092980 -2.192480 -6.469440 -0.000000 -176.484000 -9.328360 -2.889660 39.081100 -0.000007 -0.000012 0.028941 -0.098475 16.377800 40.985400 -0.000006 -0.000013 2.198270 16.522500 -67.844800 11.754300 -0.000000 0.000003 -0.001131 0.184878 -9.077100 -2.192510 6.469440 -0.000001 174.143000 10.608700 -178.136000 -39.081100 -0.002282 -0.040193 0.003665 -0.002044 9.023930 -40.985400 0.000008 0.000006 -10.888000 7.849020 -63.393100 -11.754300 -0.000006 -0.000006 -0.010267 0.273289 -5.469830
